<svg width="110" height="110" viewBox="0 0 110 110" fill="none" xmlns="http://www.w3.org/2000/svg">
<g clip-path="url(#clip0_187_24)">
<path d="M110 55C110 55.9002 109.978 56.7999 109.934 57.6985C109.89 58.5977 109.823 59.4953 109.735 60.3907C109.647 61.2867 109.537 62.18 109.405 63.0702C109.273 63.9603 109.119 64.8473 108.943 65.73C108.768 66.6127 108.57 67.4906 108.352 68.3638C108.133 69.237 107.893 70.1043 107.632 70.9658C107.37 71.8268 107.088 72.6814 106.785 73.5291C106.482 74.3763 106.158 75.216 105.813 76.0478C105.469 76.879 105.104 77.7018 104.72 78.5156C104.334 79.3293 103.93 80.133 103.506 80.9266C103.081 81.7207 102.638 82.5037 102.175 83.2756C101.712 84.0479 101.231 84.8081 100.731 85.5561C100.231 86.3046 99.7124 87.0404 99.1766 87.7634C98.6403 88.4864 98.0865 89.1957 97.5157 89.8917C96.9444 90.5877 96.3566 91.2688 95.7524 91.9356C95.1477 92.6024 94.5275 93.2544 93.891 93.891C93.2544 94.5275 92.6024 95.1477 91.9356 95.7524C91.2688 96.3566 90.5877 96.9444 89.8917 97.5157C89.1957 98.0865 88.4864 98.6403 87.7634 99.1766C87.0404 99.7124 86.3046 100.231 85.5561 100.731C84.8081 101.231 84.0479 101.712 83.2756 102.175C82.5037 102.638 81.7207 103.081 80.9266 103.506C80.133 103.93 79.3293 104.334 78.5156 104.72C77.7018 105.104 76.879 105.469 76.0478 105.813C75.216 106.158 74.3763 106.482 73.5291 106.785C72.6814 107.088 71.8268 107.37 70.9658 107.632C70.1043 107.893 69.237 108.133 68.3638 108.352C67.4906 108.57 66.6127 108.768 65.73 108.943C64.8473 109.119 63.9603 109.273 63.0702 109.405C62.18 109.537 61.2867 109.647 60.3907 109.735C59.4953 109.823 58.5977 109.89 57.6985 109.934C56.7999 109.978 55.9002 110 55 110C54.0998 110 53.2001 109.978 52.3015 109.934C51.4023 109.89 50.5047 109.823 49.6093 109.735C48.7133 109.647 47.82 109.537 46.9298 109.405C46.0397 109.273 45.1527 109.119 44.27 108.943C43.3873 108.768 42.5094 108.57 41.6362 108.352C40.763 108.133 39.8957 107.893 39.0342 107.632C38.1732 107.37 37.3186 107.088 36.4709 106.785C35.6237 106.482 34.784 106.158 33.9522 105.813C33.1209 105.469 32.2982 105.104 31.4844 104.72C30.6707 104.334 29.867 103.93 29.0734 103.506C28.2793 103.081 27.4963 102.638 26.7244 102.175C25.9521 101.712 25.1919 101.231 24.4434 100.731C23.6954 100.231 22.9596 99.7124 22.2366 99.1766C21.5136 98.6403 20.8043 98.0865 20.1083 97.5157C19.4123 96.9444 18.7312 96.3566 18.0644 95.7524C17.3976 95.1477 16.7456 94.5275 16.109 93.891C15.4725 93.2544 14.8523 92.6024 14.2476 91.9356C13.6434 91.2688 13.0556 90.5877 12.4843 89.8917C11.9135 89.1957 11.3597 88.4864 10.8234 87.7634C10.2876 87.0404 9.76929 86.3046 9.26905 85.5561C8.76934 84.8081 8.28766 84.0479 7.82509 83.2756C7.36198 82.5037 6.9185 81.7207 6.49412 80.9266C6.07026 80.133 5.66551 79.3293 5.28038 78.5156C4.89578 77.7018 4.53135 76.879 4.18654 76.0478C3.84225 75.216 3.51813 74.3763 3.21523 73.5291C2.9118 72.6814 2.62958 71.8268 2.36806 70.9658C2.10706 70.1043 1.86675 69.237 1.6482 68.3638C1.42964 67.4906 1.2323 66.6127 1.05671 65.73C0.881125 64.8473 0.727286 63.9603 0.595197 63.0702C0.463108 62.18 0.353299 61.2867 0.264709 60.3907C0.176649 59.4953 0.11034 58.5977 0.0663098 57.6985C0.02228 56.7999 0 55.9002 0 55C0 54.0998 0.02228 53.2001 0.0663098 52.3015C0.11034 51.4023 0.176649 50.5047 0.264709 49.6093C0.353299 48.7133 0.463108 47.82 0.595197 46.9298C0.727286 46.0397 0.881125 45.1527 1.05671 44.27C1.2323 43.3873 1.42964 42.5094 1.6482 41.6362C1.86675 40.763 2.10706 39.8957 2.36806 39.0342C2.62958 38.1732 2.9118 37.3186 3.21523 36.4709C3.51813 35.6237 3.84225 34.784 4.18654 33.9522C4.53135 33.1209 4.89578 32.2982 5.28038 31.4844C5.66551 30.6707 6.07026 29.867 6.49412 29.0734C6.9185 28.2793 7.36198 27.4963 7.82509 26.7244C8.28766 25.9521 8.76934 25.1919 9.26905 24.4434C9.76929 23.6954 10.2876 22.9596 10.8234 22.2366C11.3597 21.5136 11.9135 20.8043 12.4843 20.1083C13.0556 19.4123 13.6434 18.7312 14.2476 18.0644C14.8523 17.3976 15.4725 16.7456 16.109 16.109C16.7456 15.4725 17.3976 14.8523 18.0644 14.2476C18.7312 13.6434 19.4123 13.0556 20.1083 12.4843C20.8043 11.9135 21.5136 11.3597 22.2366 10.8234C22.9596 10.2876 23.6954 9.76929 24.4434 9.26905C25.1919 8.76934 25.9521 8.28766 26.7244 7.82509C27.4963 7.36198 28.2793 6.9185 29.0734 6.49412C29.867 6.07026 30.6707 5.66551 31.4844 5.28038C32.2982 4.89578 33.1209 4.53135 33.9522 4.18654C34.784 3.84225 35.6237 3.51813 36.4709 3.21523C37.3186 2.9118 38.1732 2.62958 39.0342 2.36806C39.8957 2.10706 40.763 1.86675 41.6362 1.6482C42.5094 1.42964 43.3873 1.2323 44.27 1.05671C45.1527 0.881125 46.0397 0.727286 46.9298 0.595197C47.82 0.463108 48.7133 0.353299 49.6093 0.264709C50.5047 0.176649 51.4023 0.11034 52.3015 0.0663098C53.2001 0.02228 54.0998 0 55 0C55.9002 0 56.7999 0.02228 57.6985 0.0663098C58.5977 0.11034 59.4953 0.176649 60.3907 0.264709C61.2867 0.353299 62.18 0.463108 63.0702 0.595197C63.9603 0.727286 64.8473 0.881125 65.73 1.05671C66.6127 1.2323 67.4906 1.42964 68.3638 1.6482C69.237 1.86675 70.1043 2.10706 70.9658 2.36806C71.8268 2.62958 72.6814 2.9118 73.5291 3.21523C74.3763 3.51813 75.216 3.84225 76.0478 4.18654C76.879 4.53135 77.7018 4.89578 78.5156 5.28038C79.3293 5.66551 80.133 6.07026 80.9266 6.49412C81.7207 6.9185 82.5037 7.36198 83.2756 7.82509C84.0479 8.28766 84.8081 8.76934 85.5561 9.26905C86.3046 9.76929 87.0404 10.2876 87.7634 10.8234C88.4864 11.3597 89.1957 11.9135 89.8917 12.4843C90.5877 13.0556 91.2688 13.6434 91.9356 14.2476C92.6024 14.8523 93.2544 15.4725 93.891 16.109C94.5275 16.7456 95.1477 17.3976 95.7524 18.0644C96.3566 18.7312 96.9444 19.4123 97.5157 20.1083C98.0865 20.8043 98.6403 21.5136 99.1766 22.2366C99.7124 22.9596 100.231 23.6954 100.731 24.4434C101.231 25.1919 101.712 25.9521 102.175 26.7244C102.638 27.4963 103.081 28.2793 103.506 29.0734C103.93 29.867 104.334 30.6707 104.72 31.4844C105.104 32.2982 105.469 33.1209 105.813 33.9522C106.158 34.784 106.482 35.6237 106.785 36.4709C107.088 37.3186 107.37 38.1732 107.632 39.0342C107.893 39.8957 108.133 40.763 108.352 41.6362C108.57 42.5094 108.768 43.3873 108.943 44.27C109.119 45.1527 109.273 46.0397 109.405 46.9298C109.537 47.82 109.647 48.7133 109.735 49.6093C109.823 50.5047 109.89 51.4023 109.934 52.3015C109.978 53.2001 110 54.0998 110 55Z" fill="black"/>
<path d="M89.375 37.9066C89.375 37.1522 89.1373 36.4525 88.7336 35.878C88.7331 35.877 88.7326 35.8764 88.7321 35.8754C88.0907 34.964 87.0319 34.3667 85.8356 34.3667H24.1644C22.9655 34.3667 21.905 34.9667 21.2642 35.8812C21.2642 35.8817 21.2637 35.8817 21.2632 35.8823C20.8616 36.4563 20.625 37.1538 20.625 37.9066V72.0938C20.625 72.1171 20.6261 72.1399 20.6266 72.1633C20.6271 72.1675 20.6271 72.1718 20.6271 72.176C20.6712 74.09 22.2403 75.6337 24.1644 75.6337H85.8356C87.7597 75.6337 89.3288 74.09 89.3729 72.176C89.3729 72.1718 89.3729 72.1675 89.3734 72.1633C89.3739 72.1399 89.375 72.1171 89.375 72.0938V37.9066ZM24.1644 39.7442L40.9805 49.1702L24.1644 67.5396V39.7442ZM55 52.9711L28.1249 37.9066H81.865L55 52.9711ZM44.1517 50.9479L54.1348 56.5439C54.4032 56.6945 54.7019 56.7699 55 56.7699C55.2987 56.7699 55.5968 56.6945 55.8657 56.5439L65.8472 50.9468L85.206 72.0938H24.794L44.1517 50.9479ZM69.0179 49.1686L85.8356 39.7378V67.5402L69.0179 49.1686Z" fill="white"/>
</g>
<defs>
<clipPath id="clip0_187_24">
<rect width="110" height="110" fill="white"/>
</clipPath>
</defs>
</svg>
